<svg xmlns="http://www.w3.org/2000/svg" viewBox="0 0 965.71 965.87"><defs><style>.cls-1{fill:#0a0808;}.cls-2{fill:#feffff;}.cls-3{fill:#010101;}.cls-4{fill:#030404;}.cls-5{fill:#020202;}.cls-6{fill:#090808;}.cls-7{fill:#040303;}.cls-8{fill:#030202;}.cls-9{fill:#050505;}.cls-10{fill:#040404;}.cls-11{fill:#8b8b8b;}.cls-12{fill:#29a6dd;}.cls-13{fill:#080707;}.cls-14{fill:#8c8c8c;}.cls-15{fill:#8c8b8b;}.cls-16{fill:#0e0e0e;}.cls-17{fill:#908f8f;}.cls-18{fill:#fdfdfd;}.cls-19{fill:#fbfbfb;}</style></defs><g id="Layer_2" data-name="Layer 2"><g id="Layer_1-2" data-name="Layer 1"><path class="cls-1" d="M0,483C-.06,217.69,214.73,0,482.91,0S966,217.6,965.71,483.05C965.42,750,749,966.13,482.6,965.87S.08,749.35,0,483ZM482.66,8.38C220.87,8.52,9,220.41,8.38,482.61,7.8,744.32,221.12,957.46,483.08,957.44c260.52,0,474.4-211.63,474.3-474.77C957.29,220.69,744.58,8.25,482.66,8.38Z"/><path class="cls-2" d="M482.66,8.38c261.92-.13,474.63,212.31,474.72,474.29.1,263.14-213.78,474.74-474.3,474.77-262,0-475.28-213.12-474.7-474.83C9,220.41,220.87,8.52,482.66,8.38Zm164,537.54H319.07V667.61H646.68ZM293.43,536.7H672.2V517.54H293.43ZM533.51,413.57a53.17,53.17,0,0,0-6-24.36c-1.11-2.16-2.51-3.55-5.11-3.9-9.49-1.27-18.92-3.19-28.44-4-18-1.57-35.72.45-53.24,4.61a6.52,6.52,0,0,0-4.67,3.76c-5.37,10.69-7.21,21.94-4.89,33.63A51.68,51.68,0,0,0,487.49,465C513.27,462.37,533.52,439.94,533.51,413.57Zm154.38,48.12c13.42-48.84,26.73-97.24,40.09-145.86,43.27,11.93,86,23.54,128.7,35.43-5.21,19.05-10.24,37.44-15.49,56.61,2.68-1.16,4.39-2.25,6.25-2.62,3.44-.67,4.54-2.94,5.36-6,4.61-17.28,9.37-34.51,14.07-51.76.33-1.2.54-2.44.87-4l-145.58-40L676.6,469.39l145.83,40.07C828.05,489,833.52,469,839.2,448.33A63.43,63.43,0,0,1,833,451c-3.38,1-4.69,3.25-5.53,6.54-3.08,12-6.46,23.84-9.75,35.75-.34,1.23-.82,2.42-1.28,3.78ZM583.72,508.43a10.38,10.38,0,0,0-.36-1.68,22.8,22.8,0,0,0-1.3-2.62c-9.6-16-23.7-25.21-42.35-25.44-37.92-.47-75.86-.33-113.78,0-14.75.11-27,6.45-36.7,17.59a35.12,35.12,0,0,0-7.39,12.19ZM404,315.64a56.14,56.14,0,0,0,5.28,2.44c23.18,7.39,46.36,14.8,69.6,22a12.59,12.59,0,0,0,7.12,0c23.81-7.56,47.56-15.31,71.31-23.06a31.8,31.8,0,0,0,4.44-2.4c-2.51-1.09-3.92-1.83-5.41-2.33-23.2-7.86-46.42-15.66-69.6-23.56a11.64,11.64,0,0,0-8,0Q444.1,301,409.44,313.18C408,313.69,406.62,314.46,404,315.64Zm126.19,15c-1.46.4-2.69.68-3.89,1.06-12.81,4.14-25.64,8.21-38.41,12.49a15.75,15.75,0,0,1-10.41,0c-13.25-4.34-26.57-8.48-39.87-12.68-1.15-.36-2.35-.54-3.56-.82v50.79a153.33,153.33,0,0,1,48.24-7.85,160.73,160.73,0,0,1,47.9,7.23ZM772.11,443.36c3.92,8.73,7.6,16.91,11.4,25.39l74.15-33.26-11.4-25.37Zm52.61-28.9c-.06-.45-.13-.89-.19-1.33L724.46,385.65c-1.55,4.84-3.31,9.29-3.6,14.12a23,23,0,0,0,2.21.9q40.36,11.18,80.77,22.27a7.74,7.74,0,0,0,4.63-.35c4.66-1.89,9.23-4,13.79-6.16A14.18,14.18,0,0,0,824.72,414.46ZM792.84,429.6c-.07-.33-.15-.66-.22-1L718,408.13l-3.79,14a18,18,0,0,0,1.84.79q27.21,7.56,54.43,15a6.17,6.17,0,0,0,3.76-.07C780.51,435.23,786.66,432.38,792.84,429.6Zm-59.55-71.43c5.9,7.83,11.43,15.16,17.09,22.65l43.76-25.2-6-10.31-34.59,19.84-10.81-14.06Zm27.24,90-49.71-13.63c-.77,2.7-1.43,4.86-2,7s-1.12,4.62-1.77,7.32l43.15,11.84Zm102.52-15c4.8-2.26,9.25-4.2,13.54-6.45,1.71-.9,1.41-2.81.72-4.37-2.68-6.09-5.35-12.19-8.18-18.2-1.21-2.56-2.49-3-5.16-1.93-3.61,1.45-7.13,3.12-10.64,4.79-2.06,1-2.81,2.58-1.82,4.81,2.79,6.22,5.48,12.48,8.41,18.64C860.44,431.57,861.91,432.23,863.05,433.18Zm-84,37a33.79,33.79,0,0,0-1.21-4.26c-2.38-5.49-4.77-11-7.31-16.4-2-4.28-3.56-4.49-6.63-.87-4.6,5.44-9.09,11-13.55,16.54a21.34,21.34,0,0,0-1.85,3.46c1.11.62,1.9,1.43,2.74,1.48q12.12.72,24.25,1.18C776.54,471.39,777.59,470.71,779.08,470.22Zm58.46-102.76-28.71-7.86c-1.34,5.07-2.53,9.55-3.8,14.34l28.5,7.82C834.91,376.86,836.16,372.4,837.54,367.46Zm-6.14,22.19-28.55-7.87-4,14.31,28.66,7.85C828.86,399,830.05,394.62,831.4,389.65Zm-284.35-64.6c0,15.64-.12,30.76.1,45.87,0,2.86-.12,5.32-1.72,7.73a11.81,11.81,0,0,0-1.59,4c-.51,2.32.41,4.47,2.53,5.25a8.43,8.43,0,0,0,5.48,0,4.2,4.2,0,0,0,2.4-5.29,53.33,53.33,0,0,0-2.46-5.8,8.66,8.66,0,0,1-1-3.11c.06-15.76.22-31.52.33-47.28a22.07,22.07,0,0,0-.33-2.53ZM810.93,462c-4.48-.17-7.54,2.48-11,3.84-3.7,1.48-7.27,3.26-11.91,5.37L807,476.34Z"/><path class="cls-3" d="M646.68,545.92V667.61H319.07V545.92ZM483,566.2A39.82,39.82,0,0,0,442.78,606c-.28,21.93,18,40,40,40.09A40,40,0,1,0,483,566.2Z"/><path class="cls-4" d="M293.43,536.7V517.54H672.2V536.7Z"/><path class="cls-5" d="M533.51,413.57c0,26.37-20.24,48.8-46,51.42a51.68,51.68,0,0,1-56.35-41.7c-2.32-11.69-.48-22.94,4.89-33.63a6.52,6.52,0,0,1,4.67-3.76c17.52-4.16,35.27-6.18,53.24-4.61,9.52.83,18.95,2.75,28.44,4,2.6.35,4,1.74,5.11,3.9A53.17,53.17,0,0,1,533.51,413.57Z"/><path class="cls-6" d="M687.89,461.69,816.4,497c.46-1.36.94-2.55,1.28-3.78,3.29-11.91,6.67-23.79,9.75-35.75.84-3.29,2.15-5.57,5.53-6.54a63.43,63.43,0,0,0,6.24-2.63C833.52,469,828.05,489,822.43,509.46L676.6,469.39l45.56-165.85,145.58,40c-.33,1.53-.54,2.77-.87,4-4.7,17.25-9.46,34.48-14.07,51.76-.82,3-1.92,5.3-5.36,6-1.86.37-3.57,1.46-6.25,2.62,5.25-19.17,10.28-37.56,15.49-56.61C814,339.37,771.25,327.76,728,315.83,714.62,364.45,701.31,412.85,687.89,461.69Z"/><path class="cls-7" d="M583.72,508.43H381.84a35.12,35.12,0,0,1,7.39-12.19c9.67-11.14,21.95-17.48,36.7-17.59,37.92-.29,75.86-.43,113.78,0,18.65.23,32.75,9.44,42.35,25.44a22.8,22.8,0,0,1,1.3,2.62A10.38,10.38,0,0,1,583.72,508.43Z"/><path class="cls-8" d="M404,315.64c2.58-1.18,3.94-1.95,5.4-2.46q34.65-12.23,69.3-24.42a11.64,11.64,0,0,1,8,0c23.18,7.9,46.4,15.7,69.6,23.56,1.49.5,2.9,1.24,5.41,2.33a31.8,31.8,0,0,1-4.44,2.4c-23.75,7.75-47.5,15.5-71.31,23.06a12.59,12.59,0,0,1-7.12,0c-23.24-7.22-46.42-14.63-69.6-22A56.14,56.14,0,0,1,404,315.64Z"/><path class="cls-9" d="M530.23,330.65v50.26a160.73,160.73,0,0,0-47.9-7.23,153.33,153.33,0,0,0-48.24,7.85V330.74c1.21.28,2.41.46,3.56.82,13.3,4.2,26.62,8.34,39.87,12.68a15.75,15.75,0,0,0,10.41,0c12.77-4.28,25.6-8.35,38.41-12.49C527.54,331.33,528.77,331.05,530.23,330.65Zm-89.87,8.67c0,8-.08,15.47.09,22.91a4,4,0,0,0,2.09,2.87c3.86,1.49,7.86,2.62,11.49,3.78.73-.8,1.13-1,1.14-1.27.08-7.15.17-14.3.09-21.44a3.62,3.62,0,0,0-1.48-2.8A51.93,51.93,0,0,0,440.36,339.32Z"/><path class="cls-10" d="M772.11,443.36l74.15-33.24,11.4,25.37-74.15,33.26C779.71,460.27,776,452.09,772.11,443.36Z"/><path class="cls-11" d="M824.72,414.46a14.18,14.18,0,0,1-2.46,2c-4.56,2.14-9.13,4.27-13.79,6.16a7.74,7.74,0,0,1-4.63.35q-40.41-11-80.77-22.27a23,23,0,0,1-2.21-.9c.29-4.83,2-9.28,3.6-14.12l100.07,27.48C824.59,413.57,824.66,414,824.72,414.46Z"/><path class="cls-11" d="M792.84,429.6c-6.18,2.78-12.33,5.63-18.57,8.29a6.17,6.17,0,0,1-3.76.07q-27.24-7.44-54.43-15a18,18,0,0,1-1.84-.79l3.79-14,74.59,20.49C792.69,428.94,792.77,429.27,792.84,429.6Z"/><path class="cls-12" d="M733.29,358.17l9.47-7.08,10.81,14.06,34.59-19.84,6,10.31-43.76,25.2C744.72,373.33,739.19,366,733.29,358.17Z"/><path class="cls-11" d="M760.53,448.16l-10.32,12.57-43.15-11.84c.65-2.7,1.17-5,1.77-7.32s1.22-4.34,2-7Z"/><path class="cls-13" d="M863.05,433.18c-1.14-.95-2.61-1.61-3.13-2.71-2.93-6.16-5.62-12.42-8.41-18.64-1-2.23-.24-3.83,1.82-4.81,3.51-1.67,7-3.34,10.64-4.79,2.67-1.08,3.95-.63,5.16,1.93,2.83,6,5.5,12.11,8.18,18.2.69,1.56,1,3.47-.72,4.37C872.3,429,867.85,430.92,863.05,433.18Z"/><path class="cls-6" d="M779.08,470.22c-1.49.49-2.54,1.17-3.56,1.13q-12.12-.45-24.25-1.18c-.84-.05-1.63-.86-2.74-1.48a21.34,21.34,0,0,1,1.85-3.46c4.46-5.56,9-11.1,13.55-16.54,3.07-3.62,4.63-3.41,6.63.87,2.54,5.42,4.93,10.91,7.31,16.4A33.79,33.79,0,0,1,779.08,470.22Z"/><path class="cls-14" d="M837.54,367.46c-1.38,4.94-2.63,9.4-4,14.3L805,373.94c1.27-4.79,2.46-9.27,3.8-14.34Z"/><path class="cls-15" d="M831.4,389.65c-1.35,5-2.54,9.33-3.89,14.29l-28.66-7.85,4-14.31Z"/><path class="cls-16" d="M547.05,325.05l3.7-1.16a22.07,22.07,0,0,1,.33,2.53c-.11,15.76-.27,31.52-.33,47.28a8.66,8.66,0,0,0,1,3.11,53.33,53.33,0,0,1,2.46,5.8,4.2,4.2,0,0,1-2.4,5.29,8.43,8.43,0,0,1-5.48,0c-2.12-.78-3-2.93-2.53-5.25a11.81,11.81,0,0,1,1.59-4c1.6-2.41,1.76-4.87,1.72-7.73C546.93,355.81,547.05,340.69,547.05,325.05Z"/><path class="cls-17" d="M810.93,462,807,476.34l-18.93-5.16c4.64-2.11,8.21-3.89,11.91-5.37C803.39,464.45,806.45,461.8,810.93,462Z"/><path class="cls-18" d="M483,566.2a40,40,0,1,1-.17,79.91c-22-.08-40.28-18.16-40-40.09A39.82,39.82,0,0,1,483,566.2Z"/><path class="cls-19" d="M440.36,339.32a51.93,51.93,0,0,1,13.42,4.05,3.62,3.62,0,0,1,1.48,2.8c.08,7.14,0,14.29-.09,21.44,0,.24-.41.47-1.14,1.27-3.63-1.16-7.63-2.29-11.49-3.78a4,4,0,0,1-2.09-2.87C440.28,354.79,440.36,347.36,440.36,339.32Z"/></g></g></svg>